<svg height="512" viewBox="0 0 64 64" width="512" xmlns="http://www.w3.org/2000/svg"><g id="flat"><path d="m31 7h2v9h-2z" fill="#66342e"/><rect fill="#E1A546" height="4" rx="2" width="20" x="28" y="3"/><rect fill="#E1A546" height="4" rx="2" width="20" x="35" y="43"/><path d="m38 19h6v4h-6z" fill="#FFDC64"/><rect fill="#E1A546" height="4" rx="2" width="38" x="12" y="23"/><path d="m13 43h18v14h-18z" fill="#FFDC64"/><circle cx="22" cy="52" fill="#66342e" r="5"/><path d="m38 7h6v4h-6z" fill="#e97424"/><path d="m38 11h6v4h-6z" fill="#FFDC64"/><path d="m38 15h6v4h-6z" fill="#e97424"/><path d="m38 39h6v4h-6z" fill="#FFDC64"/><path d="m38 27h6v4h-6z" fill="#e97424"/><path d="m38 31h6v4h-6z" fill="#FFDC64"/><path d="m38 35h6v4h-6z" fill="#e97424"/><path d="m38 47h6v5h-6z" fill="#e97424"/><path d="m38 52h6v5h-6z" fill="#FFDC64"/><path d="m15 27h6v4h-6z" fill="#e97424"/><path d="m15 31h6v4h-6z" fill="#FFDC64"/><path d="m15 35h6v4h-6z" fill="#e97424"/><rect fill="#E1A546" height="4" rx="2" width="24" x="10" y="39"/><path d="m6 57h52v4h-52z" fill="#E1A546"/><circle cx="32" cy="17" fill="#e97424" r="2"/></g></svg>